<svg width="32" height="32" viewBox="0 0 32 32" fill="none" xmlns="http://www.w3.org/2000/svg">
  <rect width="32" height="32" rx="8" fill="#2563EB"/>
  <!-- Буква P -->
  <path d="M7.5 10C7.5 9.44772 7.94772 9 8.5 9H13C15.4853 9 17.5 11.0147 17.5 13.5C17.5 15.9853 15.4853 18 13 18H10V23C10 23.5523 9.55228 24 9 24H8.5C7.94772 24 7.5 23.5523 7.5 23V10Z" fill="white"/>
  <path d="M10 13.5C10 14.3284 10.6716 15 11.5 15H13C13.8284 15 14.5 14.3284 14.5 13.5C14.5 12.6716 13.8284 12 13 12H10V13.5Z" fill="#2563EB"/>
  <!-- Буква D -->
  <path d="M18 10C18 9.44772 18.4477 9 19 9H21.5C23.9853 9 26 11.0147 26 13.5V19.5C26 21.9853 23.9853 24 21.5 24H19C18.4477 24 18 23.5523 18 23V10Z" fill="white"/>
  <path d="M20.5 12V21H21.5C22.3284 21 23 20.3284 23 19.5V13.5C23 12.6716 22.3284 12 21.5 12H20.5Z" fill="#2563EB"/>
</svg> 