<svg width="512" height="512" viewBox="0 0 512 512" fill="none" xmlns="http://www.w3.org/2000/svg">
  <rect width="512" height="512" rx="64" fill="#2563EB"/>
  <!-- Буква P -->
  <path d="M120 160C120 149.507 128.507 141 139 141H206C245.706 141 278 173.294 278 213C278 252.706 245.706 285 206 285H159V371C159 381.493 150.493 390 140 390H139C128.507 390 120 381.493 120 371V160Z" fill="white"/>
  <path d="M159 213C159 230.673 173.327 245 191 245H206C223.673 245 238 230.673 238 213C238 195.327 223.673 181 206 181H159V213Z" fill="#2563EB"/>
  <!-- Буква D -->
  <path d="M284 160C284 149.507 292.507 141 303 141H342C381.706 141 414 173.294 414 213V318C414 357.706 381.706 390 342 390H303C292.507 390 284 381.493 284 371V160Z" fill="white"/>
  <path d="M324 181V350H342C359.673 350 374 335.673 374 318V213C374 195.327 359.673 181 342 181H324Z" fill="#2563EB"/>
</svg> 