<svg width="192" height="192" viewBox="0 0 192 192" fill="none" xmlns="http://www.w3.org/2000/svg">
  <rect width="192" height="192" rx="24" fill="#2563EB"/>
  <!-- Буква P -->
  <path d="M45 60C45 56.134 48.134 53 52 53H77C92.464 53 105 65.536 105 81C105 96.464 92.464 109 77 109H60V139C60 142.866 56.866 146 53 146H52C48.134 146 45 142.866 45 139V60Z" fill="white"/>
  <path d="M60 81C60 86.5228 64.4772 91 70 91H77C82.5228 91 87 86.5228 87 81C87 75.4772 82.5228 71 77 71H60V81Z" fill="#2563EB"/>
  <!-- Буква D -->
  <path d="M107 60C107 56.134 110.134 53 114 53H128C143.464 53 156 65.536 156 81V119C156 134.464 143.464 147 128 147H114C110.134 147 107 143.866 107 140V60Z" fill="white"/>
  <path d="M122 71V129H128C133.523 129 138 124.523 138 119V81C138 75.4772 133.523 71 128 71H122Z" fill="#2563EB"/>
</svg> 